{"title":"Funny Pics Compilation Part 11","uid":15983704,"size":149272464,"categoryP":"video","categoryS":"other","magnet":"?xt=urn:btih:e63fe0ca48dd71bd7f00badf3c3b8ebc07689cd7&amp;dn=Funny+Pics+Compilation+Part+11&amp;tr=udp%3A%2F%2Ftracker.leechers-paradise.org%3A6969&amp;tr=udp%3A%2F%2Fzer0day.ch%3A1337&amp;tr=udp%3A%2F%2Fopen.demonii.com%3A1337&amp;tr=udp%3A%2F%2Ftracker.coppersurfer.tk%3A6969&amp;tr=udp%3A%2F%2Fexodus.desync.com%3A6969","seeders":3,"leechers":0,"uploader":"nico1899","files":3,"time":1475937029,"description":"Funny Pics Compilation Part 11\r\n\r\nScreenshots\r\n    \nhttp://imgprix.com/video/funny-pics-compilation-part-11\r\n\r\nFormat                                   : MPEG-4\r\nFormat profile                           : Base Media / Version 2\r\nCodec ID                                 : mp42 (mp41/isom)\r\nFile size                                : 142 MiB\r\nDuration                                 : 9 min 40 s\r\nOverall bit rate                         : 2 057 kb/s\r\nEncoded date                             : UTC 2016-10-08 12:14:48\r\nTagged date                              : UTC 2016-10-08 12:14:48\r\n\r\nVideo\r\nID                                       : 1\r\nFormat                                   : AVC\r\nFormat/Info                              : Advanced Video Codec\r\nFormat profile                           :   \r\nFormat settings, CABAC                   : No\r\nFormat settings, ReFrames                : 2 frames\r\nFormat settings, GOP                     : M=1, N=30\r\nCodec ID                                 : avc1\r\nCodec ID/Info                            : Advanced Video Coding\r\nDuration                                 : 9 min 40 s\r\nSource duration                          : 9 min 40 s\r\nBit rate                                 : 1 861 kb/s\r\nWidth                                    : 1 920 pixels\r\nHeight                                   : 1 080 pixels\r\nDisplay aspect ratio                     : 16:9\r\nFrame rate mode                          : Constant\r\nFrame rate                               : 29.970 (29970/1000) FPS\r\nColor space                              : YUV\r\nChroma subsampling                       : 4:2:0\r\nBit depth                                : 8 bits\r\nScan type                                : Progressive\r\nBits/(Pixel*Frame)                       : 0.030\r\nStream size                              : 129 MiB (90%)\r\nSource stream size                       : 129 MiB (90%)\r\nEncoded date                             : UTC 2016-10-08 12:14:48\r\nTagged date                              : UTC 2016-10-08 12:14:48\r\nmdhd_Duration                            : 580580\r\n\r\nAudio\r\nID                                       : 2\r\nFormat                                   : AAC\r\nFormat/Info                              : Advanced Audio Codec\r\nFormat profile                           : LC\r\nCodec ID                                 : 40\r\nDuration                                 : 9 min 40 s\r\nBit rate mode                            : Constant\r\nBit rate                                 : 192 kb/s\r\nChannel(s)                               : 2 channels\r\nChannel positions                        : Front: L R\r\nSampling rate                            : 48.0 kHz\r\nFrame rate                               : 46.875 FPS (1024 spf)\r\nCompression mode                         : Lossy\r\nStream size                              : 13.3 MiB (9%)\r\nEncoded date                             : UTC 2016-10-08 12:14:48\r\nTagged date                              : UTC 2016-10-08 12:14:48\r\nmdhd_Duration                            : 580608","torrent":{"xt":"urn:btih:e63fe0ca48dd71bd7f00badf3c3b8ebc07689cd7","amp;dn":"Funny+Pics+Compilation+Part+11","amp;tr":["udp%3A%2F%2Ftracker.leechers-paradise.org%3A6969","udp%3A%2F%2Fzer0day.ch%3A1337","udp%3A%2F%2Fopen.demonii.com%3A1337","udp%3A%2F%2Ftracker.coppersurfer.tk%3A6969","udp%3A%2F%2Fexodus.desync.com%3A6969"],"infoHash":"e63fe0ca48dd71bd7f00badf3c3b8ebc07689cd7","infoHashBuffer":{"type":"Buffer","data":[230,63,224,202,72,221,113,189,127,0,186,223,60,59,142,188,7,104,156,215]},"announce":[],"urlList":[]}}